HIERARCHY
ROOT Root
{
  OFFSET 0.0 0.0 0.0
  CHANNELS 6 Xposition Yposition Zposition Zrotation Yrotation Xrotation
  JOINT Hips
  {
    OFFSET 0.0 100.0 0.0
    CHANNELS 6 Xposition Yposition Zposition Zrotation Yrotation Xrotation
    JOINT Spine1
    {
      OFFSET 5.003913 -0.037094 -0.013727
      CHANNELS 3 Zrotation Yrotation Xrotation
      JOINT Spine2
      {
        OFFSET 7.125363 -1e-06 0.0
        CHANNELS 3 Zrotation Yrotation Xrotation
        JOINT Chest
        {
          OFFSET 7.594027 1e-06 0.0
          CHANNELS 3 Zrotation Yrotation Xrotation
          JOINT Neck1
          {
            OFFSET 26.313086 -0.460272 -0.181672
            CHANNELS 3 Zrotation Yrotation Xrotation
            JOINT Neck2
            {
              OFFSET 8.045911 0.0 0.0
              CHANNELS 3 Zrotation Yrotation Xrotation
              JOINT Head
              {
                OFFSET 6.432774 0.0 0.0
                CHANNELS 3 Zrotation Yrotation Xrotation
                JOINT HeadEnd
                {
                  OFFSET 16.169773 0.06451 0.00362
                  CHANNELS 3 Zrotation Yrotation Xrotation
                }
                JOINT Jaw
                {
                  OFFSET 0.108741 3.12938 0.002639
                  CHANNELS 3 Zrotation Yrotation Xrotation
                }
                JOINT LeftEye
                {
                  OFFSET 4.45173 8.166359 3.206392
                  CHANNELS 3 Zrotation Yrotation Xrotation
                }
                JOINT RightEye
                {
                  OFFSET 4.436895 8.135758 -3.222429
                  CHANNELS 3 Zrotation Yrotation Xrotation
                }
              }
            }
          }
          JOINT LeftShoulder
          {
            OFFSET 23.218927 5.195579 1.621656
            CHANNELS 3 Zrotation Yrotation Xrotation
            JOINT LeftArm
            {
              OFFSET 15.902118 2e-06 -2e-06
              CHANNELS 3 Zrotation Yrotation Xrotation
              JOINT LeftForeArm
              {
                OFFSET 28.739307 0.0 -1e-06
                CHANNELS 3 Zrotation Yrotation Xrotation
                JOINT LeftHand
                {
                  OFFSET 27.093981 -4e-06 0.0
                  CHANNELS 3 Zrotation Yrotation Xrotation
                  JOINT LeftHandThumb1
                  {
                    OFFSET 2.276781 3.380274 0.83384
                    CHANNELS 3 Zrotation Yrotation Xrotation
                    JOINT LeftHandThumb2
                    {
                      OFFSET 4.705309 -1e-06 -1e-06
                      CHANNELS 3 Zrotation Yrotation Xrotation
                      JOINT LeftHandThumb3
                      {
                        OFFSET 2.798515 0.0 3e-06
                        CHANNELS 3 Zrotation Yrotation Xrotation
                        JOINT LeftHandThumbEnd
                        {
                          OFFSET 3.180793 4e-06 -4e-06
                          CHANNELS 3 Zrotation Yrotation Xrotation
                        }
                      }
                    }
                  }
                  JOINT LeftHandIndex1
                  {
                    OFFSET 3.247786 2.352677 0.137192
                    CHANNELS 3 Zrotation Yrotation Xrotation
                    JOINT LeftHandIndex2
                    {
                      OFFSET 6.367095 1e-06 0.0
                      CHANNELS 3 Zrotation Yrotation Xrotation
                      JOINT LeftHandIndex3
                      {
                        OFFSET 3.662364 0.0 0.0
                        CHANNELS 3 Zrotation Yrotation Xrotation
                        JOINT LeftHandIndex4
                        {
                          OFFSET 2.329242 4e-06 -4e-06
                          CHANNELS 3 Zrotation Yrotation Xrotation
                          JOINT LeftHandIndexEnd
                          {
                            OFFSET 2.767823 1e-06 0.0
                            CHANNELS 3 Zrotation Yrotation Xrotation
                          }
                        }
                      }
                    }
                  }
                  JOINT LeftHandMiddle1
                  {
                    OFFSET 3.163612 0.945023 -0.406112
                    CHANNELS 3 Zrotation Yrotation Xrotation
                    JOINT LeftHandMiddle2
                    {
                      OFFSET 6.276789 3e-06 0.0
                      CHANNELS 3 Zrotation Yrotation Xrotation
                      JOINT LeftHandMiddle3
                      {
                        OFFSET 4.35652 -1e-06 4e-06
                        CHANNELS 3 Zrotation Yrotation Xrotation
                        JOINT LeftHandMiddle4
                        {
                          OFFSET 2.996877 0.0 8e-06
                          CHANNELS 3 Zrotation Yrotation Xrotation
                          JOINT LeftHandMiddleEnd
                          {
                            OFFSET 2.323256 3e-06 -4e-06
                            CHANNELS 3 Zrotation Yrotation Xrotation
                          }
                        }
                      }
                    }
                  }
                  JOINT LeftHandRing1
                  {
                    OFFSET 2.882606 -0.309162 0.107445
                    CHANNELS 3 Zrotation Yrotation Xrotation
                    JOINT LeftHandRing2
                    {
                      OFFSET 6.033198 0.0 4e-06
                      CHANNELS 3 Zrotation Yrotation Xrotation
                      JOINT LeftHandRing3
                      {
                        OFFSET 4.350578 3e-06 0.0
                        CHANNELS 3 Zrotation Yrotation Xrotation
                        JOINT LeftHandRing4
                        {
                          OFFSET 2.651321 2e-06 -7e-06
                          CHANNELS 3 Zrotation Yrotation Xrotation
                          JOINT LeftHandRingEnd
                          {
                            OFFSET 1.937663 1e-06 -4e-06
                            CHANNELS 3 Zrotation Yrotation Xrotation
                          }
                        }
                      }
                    }
                  }
                  JOINT LeftHandPinky1
                  {
                    OFFSET 2.865315 -1.525436 0.575687
                    CHANNELS 3 Zrotation Yrotation Xrotation
                    JOINT LeftHandPinky2
                    {
                      OFFSET 5.54936 1e-06 -8e-06
                      CHANNELS 3 Zrotation Yrotation Xrotation
                      JOINT LeftHandPinky3
                      {
                        OFFSET 3.070974 0.0 -4e-06
                        CHANNELS 3 Zrotation Yrotation Xrotation
                        JOINT LeftHandPinky4
                        {
                          OFFSET 1.549672 1e-06 0.0
                          CHANNELS 3 Zrotation Yrotation Xrotation
                          JOINT LeftHandPinkyEnd
                          {
                            OFFSET 1.952123 0.0 0.0
                            CHANNELS 3 Zrotation Yrotation Xrotation
                          }
                        }
                      }
                    }
                  }
                }
              }
            }
          }
          JOINT RightShoulder
          {
            OFFSET 23.161716 5.296122 -1.380114
            CHANNELS 3 Zrotation Yrotation Xrotation
            JOINT RightArm
            {
              OFFSET -16.027195 -2e-06 1.1e-05
              CHANNELS 3 Zrotation Yrotation Xrotation
              JOINT RightForeArm
              {
                OFFSET -28.736639 4e-06 2e-06
                CHANNELS 3 Zrotation Yrotation Xrotation
                JOINT RightHand
                {
                  OFFSET -27.133619 6e-06 0.0
                  CHANNELS 3 Zrotation Yrotation Xrotation
                  JOINT RightHandThumb1
                  {
                    OFFSET -2.274328 -3.351035 -0.83067
                    CHANNELS 3 Zrotation Yrotation Xrotation
                    JOINT RightHandThumb2
                    {
                      OFFSET -4.703594 -3e-06 2e-06
                      CHANNELS 3 Zrotation Yrotation Xrotation
                      JOINT RightHandThumb3
                      {
                        OFFSET -2.794935 -4e-06 -3e-06
                        CHANNELS 3 Zrotation Yrotation Xrotation
                        JOINT RightHandThumbEnd
                        {
                          OFFSET -3.183852 4e-06 1e-06
                          CHANNELS 3 Zrotation Yrotation Xrotation
                        }
                      }
                    }
                  }
                  JOINT RightHandIndex1
                  {
                    OFFSET -3.253496 -2.33755 -0.127667
                    CHANNELS 3 Zrotation Yrotation Xrotation
                    JOINT RightHandIndex2
                    {
                      OFFSET -6.344434 0.0 0.0
                      CHANNELS 3 Zrotation Yrotation Xrotation
                      JOINT RightHandIndex3
                      {
                        OFFSET -3.654871 0.0 -8e-06
                        CHANNELS 3 Zrotation Yrotation Xrotation
                        JOINT RightHandIndex4
                        {
                          OFFSET -2.327586 -1e-06 0.0
                          CHANNELS 3 Zrotation Yrotation Xrotation
                          JOINT RightHandIndexEnd
                          {
                            OFFSET -2.770001 3e-06 8e-06
                            CHANNELS 3 Zrotation Yrotation Xrotation
                          }
                        }
                      }
                    }
                  }
                  JOINT RightHandMiddle1
                  {
                    OFFSET -3.168223 -0.944764 0.411762
                    CHANNELS 3 Zrotation Yrotation Xrotation
                    JOINT RightHandMiddle2
                    {
                      OFFSET -6.266691 -1e-06 -4e-06
                      CHANNELS 3 Zrotation Yrotation Xrotation
                      JOINT RightHandMiddle3
                      {
                        OFFSET -4.348901 0.0 0.0
                        CHANNELS 3 Zrotation Yrotation Xrotation
                        JOINT RightHandMiddle4
                        {
                          OFFSET -3.00024 2e-06 -4e-06
                          CHANNELS 3 Zrotation Yrotation Xrotation
                          JOINT RightHandMiddleEnd
                          {
                            OFFSET -2.321477 -4e-06 -4e-06
                            CHANNELS 3 Zrotation Yrotation Xrotation
                          }
                        }
                      }
                    }
                  }
                  JOINT RightHandRing1
                  {
                    OFFSET -2.885654 0.293261 -0.119232
                    CHANNELS 3 Zrotation Yrotation Xrotation
                    JOINT RightHandRing2
                    {
                      OFFSET -6.032835 -1e-06 -4e-06
                      CHANNELS 3 Zrotation Yrotation Xrotation
                      JOINT RightHandRing3
                      {
                        OFFSET -4.33881 0.0 -4e-06
                        CHANNELS 3 Zrotation Yrotation Xrotation
                        JOINT RightHandRing4
                        {
                          OFFSET -2.654903 -4e-06 -4e-06
                          CHANNELS 3 Zrotation Yrotation Xrotation
                          JOINT RightHandRingEnd
                          {
                            OFFSET -1.935122 0.0 4e-06
                            CHANNELS 3 Zrotation Yrotation Xrotation
                          }
                        }
                      }
                    }
                  }
                  JOINT RightHandPinky1
                  {
                    OFFSET -2.866241 1.503904 -0.60527
                    CHANNELS 3 Zrotation Yrotation Xrotation
                    JOINT RightHandPinky2
                    {
                      OFFSET -5.553177 -2e-06 0.0
                      CHANNELS 3 Zrotation Yrotation Xrotation
                      JOINT RightHandPinky3
                      {
                        OFFSET -3.062664 -1e-06 -4e-06
                        CHANNELS 3 Zrotation Yrotation Xrotation
                        JOINT RightHandPinky4
                        {
                          OFFSET -1.546529 2e-06 4e-06
                          CHANNELS 3 Zrotation Yrotation Xrotation
                          JOINT RightHandPinkyEnd
                          {
                            OFFSET -1.952341 0.0 -4e-06
                            CHANNELS 3 Zrotation Yrotation Xrotation
                          }
                        }
                      }
                    }
                  }
                }
              }
            }
          }
        }
      }
    }
    JOINT LeftLeg
    {
      OFFSET -8.443107 2.567604 10.043214
      CHANNELS 3 Zrotation Yrotation Xrotation
      JOINT LeftShin
      {
        OFFSET 43.229198 1e-06 -1e-06
        CHANNELS 3 Zrotation Yrotation Xrotation
        JOINT LeftFoot
        {
          OFFSET 42.298611 1e-06 1e-06
          CHANNELS 3 Zrotation Yrotation Xrotation
          JOINT LeftToeBase
          {
            OFFSET 14.165858 1e-06 0.0
            CHANNELS 3 Zrotation Yrotation Xrotation
            JOINT LeftToeEnd
            {
              OFFSET 6.7141 -0.234461 0.0
              CHANNELS 3 Zrotation Yrotation Xrotation
            }
          }
        }
      }
    }
    JOINT RightLeg
    {
      OFFSET -8.303923 2.592729 -10.047278
      CHANNELS 3 Zrotation Yrotation Xrotation
      JOINT RightShin
      {
        OFFSET -43.369682 0.0 1e-06
        CHANNELS 3 Zrotation Yrotation Xrotation
        JOINT RightFoot
        {
          OFFSET -42.260784 4e-06 2e-06
          CHANNELS 3 Zrotation Yrotation Xrotation
          JOINT RightToeBase
          {
            OFFSET -14.222245 -2e-06 -1e-06
            CHANNELS 3 Zrotation Yrotation Xrotation
            JOINT RightToeEnd
            {
              OFFSET -6.660062 0.232574 -2e-06
              CHANNELS 3 Zrotation Yrotation Xrotation
            }
          }
        }
      }
    }
  }
}
MOTION
Frames: 4
Frame Time: 0.03333333333333333
0.0 0.0 0.0 0.0 -0.0 0.0 -3.214384 99.564445 1.039876 90.434921 1.211014 89.763229 -3.852206 0.520427 -0.070221 -12.373312 -0.509371 0.334286 18.623121 -0.772439 -2.167485 26.836229 1.322642 2.351794 -2.524667 -0.913167 -0.269495 -31.012495 -2.16322 0.202168 6e-06 -0.0 -0.0 0.031784 0.014389 -0.047583 0.058222 0.059604 -0.032992 0.072409 -0.033373 -0.063721 -101.750153 -74.139091 116.002571 46.328453 -63.558666 6.225424 25.182623 -0.019523 0.054915 0.993506 -0.055609 6.086369 17.636625 -26.322725 52.411182 -19.466658 -14.395594 29.410381 -0.0 -8.774819 -2e-06 15.865264 -18.243225 6.092088 -0.609776 -1.795653 -3.889328 -4.807087 -11.04681 -2.937847 5e-06 -20.976015 -2e-06 -5.019971 -25.033554 -4.031878 6e-06 -0.0 -1e-06 -10.634533 -5.68697 -3.56559 10.573271 -17.922947 -3.113897 4e-06 -13.821202 0.0 -0.501774 -31.181498 -4.027012 -11.327526 -59.740639 7.138732 -13.982711 -7.150196 -2.875043 13.772724 -8.40149 -3.218237 0.347735 -34.211544 0.771654 -0.963027 -17.73337 2.621019 1e-06 2e-06 1e-06 -17.346411 -20.095213 -4.201784 21.757551 -1.638376 3.866428 1e-06 -6.338822 -0.0 -1.697589 -22.59174 -6.194005 0.0 -3e-06 -0.0 58.311771 -76.12413 137.25975 52.881458 -59.583641 7.095388 20.744778 -0.416257 -0.033861 -2.543156 -7.741947 12.091381 22.182108 -20.375895 49.933319 -16.701815 -16.743526 28.47653 -3e-06 -12.690598 -1e-06 16.065062 -17.589458 2.598125 -0.10592 -1.513856 -4.275882 -5.03904 -5.612871 -2.953557 5e-06 -11.020524 -1e-06 -6.111298 -15.895334 -3.840469 -0.0 1e-06 1e-06 -10.283367 -5.680287 -4.341839 11.028293 -11.302406 -2.372635 -1.384268 -14.238582 -6.320122 -0.625439 -26.924192 -3.827601 -4.256883 -50.034676 -3.949952 -13.70852 -7.363475 -3.72094 18.141146 -14.052739 -3.242675 7e-06 -18.787266 -3e-06 -0.429712 -8.456045 2.555504 1e-06 -0.0 1e-06 -15.92353 -20.094482 -5.473586 30.419205 -7.190826 1.735922 3e-06 -8.162925 -2e-06 -1.861903 -22.861467 -6.167941 -1e-06 -4e-06 0.0 179.406494 -10.233418 -8.26255 12.368889 0.004238 0.122321 -75.79879 4.336046 -9.196714 -13.575105 1.699131 1.883352 -0.999999 0.0 -0.0 -13.266853 -6.420466 -1.373081 15.505598 0.003434 0.181652 -67.585571 -6.815054 -8.497501 -11.98254 0.887532 1.58083 -1.000002 -0.0 -0.0 
0.0 0.0 0.0 0.0 -0.0 0.0 -3.191586 99.44175 1.054052 90.394669 1.254465 90.048447 -3.633867 0.569016 -0.088318 -12.28383 -0.50864 0.342952 18.444857 -0.782685 -2.174227 26.877813 1.468537 2.346831 -2.528182 -0.901491 -0.306297 -31.166851 -2.191404 0.060161 6e-06 -0.0 -0.0 0.023591 0.013384 -0.024225 0.066283 0.050482 -0.008205 0.073956 -0.025783 -0.042118 -100.795525 -74.274521 115.110229 47.143753 -63.654495 5.000501 25.128721 -0.022857 0.016115 0.933798 -0.200442 6.010025 17.636629 -26.322733 52.411198 -19.466665 -14.395598 29.410395 -1e-06 -8.774821 -1e-06 15.893741 -18.219465 6.057958 -0.609776 -1.795653 -3.889328 -4.807089 -11.04681 -2.937851 5e-06 -20.976011 -1e-06 -5.019971 -25.033554 -4.031879 6e-06 1e-06 1e-06 -10.634533 -5.686969 -3.565588 10.573275 -17.922949 -3.1139 3e-06 -13.821205 1e-06 -0.501779 -31.181505 -4.027011 -11.333857 -59.698963 7.148879 -13.982713 -7.150197 -2.875044 13.772727 -8.401492 -3.21824 0.347735 -34.211552 0.771655 -0.963031 -17.73337 2.621024 -1e-06 0.0 1e-06 -17.346416 -20.095215 -4.201783 21.757557 -1.638376 3.866429 1e-06 -6.338823 0.0 -1.697585 -22.591749 -6.194007 -0.0 -2e-06 -0.0 58.652714 -76.263435 137.041565 53.284885 -59.654293 6.083192 20.424831 -0.436385 -0.021908 -2.561309 -7.684822 11.708005 22.182114 -20.375898 49.933327 -16.701817 -16.74353 28.476534 -3e-06 -12.690602 -1e-06 16.065802 -17.524288 2.556584 -0.10592 -1.513856 -4.275883 -5.039041 -5.612871 -2.953556 4e-06 -11.020524 -1e-06 -6.111299 -15.89533 -3.84047 0.0 1e-06 2e-06 -10.283371 -5.680288 -4.341841 11.028296 -11.302406 -2.372632 -1.384267 -14.238579 -6.320122 -0.625434 -26.924189 -3.827602 -4.235493 -50.046013 -3.973295 -13.708524 -7.363475 -3.72094 18.14115 -14.052739 -3.242677 7e-06 -18.787268 -1e-06 -0.429715 -8.456046 2.555504 1e-06 -0.0 1e-06 -15.923534 -20.094482 -5.473588 30.419214 -7.190826 1.735926 4e-06 -8.162927 -1e-06 -1.861904 -22.861473 -6.16794 1e-06 -3e-06 -1e-06 178.44603 -10.460834 -8.221426 14.382975 0.012382 0.187414 -76.614136 4.53694 -9.038656 -13.862189 1.700503 1.883822 -0.999999 -0.0 -0.0 -13.954324 -6.483831 -1.50369 17.107538 -0.010778 0.213532 -68.193336 -7.032439 -8.543497 -12.114755 0.881191 1.585122 -1.000003 -0.0 -0.0 
0.0 0.0 0.0 0.0 -0.0 0.0 -3.160112 99.183563 1.180629 90.334305 1.361865 90.450569 -3.378158 0.601922 -0.109828 -12.170385 -0.527477 0.337159 18.340479 -0.755068 -2.172323 26.895016 1.724395 2.34765 -2.566947 -0.896967 -0.334 -31.34449 -2.206361 -0.121016 6e-06 0.0 -0.0 0.020033 0.01366 -0.021759 0.055977 0.042729 -0.003405 0.064261 -0.017531 -0.041815 -99.534538 -74.481628 113.917053 47.928833 -63.762836 3.794717 25.226671 -0.045205 -0.024054 0.830606 -0.305841 5.766909 17.636629 -26.322729 52.41119 -19.466663 -14.395594 29.410389 -0.0 -8.774821 -2e-06 15.938128 -18.230814 6.037496 -0.609776 -1.795653 -3.889329 -4.80709 -11.046813 -2.937847 4e-06 -20.976017 -2e-06 -5.019974 -25.03356 -4.03188 4e-06 0.0 0.0 -10.634534 -5.68697 -3.565586 10.573272 -17.922951 -3.113903 2e-06 -13.821209 1e-06 -0.501778 -31.181505 -4.027015 -11.400015 -59.681778 7.140903 -13.982714 -7.150197 -2.875041 13.77273 -8.401493 -3.218241 0.347735 -34.211555 0.771653 -0.963028 -17.733372 2.621022 -1e-06 -1e-06 -0.0 -17.346422 -20.095221 -4.201779 21.757561 -1.638375 3.866429 2e-06 -6.338824 -0.0 -1.697588 -22.591747 -6.194005 -2e-06 -1e-06 -3e-06 59.080372 -76.458649 136.67421 53.625542 -59.784046 4.83045 20.121937 -0.513985 -0.033932 -2.672067 -7.420893 11.477211 22.182112 -20.375885 49.933308 -16.701811 -16.743526 28.476522 -3e-06 -12.690599 -1e-06 16.032648 -17.449293 2.537384 -0.105919 -1.513855 -4.275883 -5.03904 -5.612869 -2.953553 5e-06 -11.020519 -1e-06 -6.111295 -15.895329 -3.840472 -1e-06 -0.0 2e-06 -10.283369 -5.680287 -4.341838 11.028294 -11.302402 -2.372634 -1.38427 -14.238576 -6.320118 -0.625435 -26.924175 -3.8276 -4.190023 -49.958096 -4.012017 -13.708523 -7.363474 -3.720938 18.141148 -14.052734 -3.242674 7e-06 -18.787264 -3e-06 -0.429712 -8.456044 2.555503 1e-06 -0.0 2e-06 -15.923532 -20.094479 -5.473586 30.419207 -7.190826 1.735927 2e-06 -8.162921 -2e-06 -1.861899 -22.861464 -6.16794 -2e-06 -2e-06 -0.0 177.165298 -10.804629 -8.12142 17.136776 0.001446 0.234762 -77.887741 4.821497 -8.81308 -14.070955 1.700354 1.888374 -0.999999 -0.0 -0.0 -14.815399 -6.578206 -1.660022 19.398354 -0.021918 0.218511 -69.331787 -7.311946 -8.676252 -12.126803 0.879979 1.590205 -1.000003 -0.0 -0.0 
0.0 0.0 0.0 0.0 -0.0 0.0 -3.185839 98.803009 1.273716 90.250038 1.542631 90.858124 -3.058067 0.619633 -0.111843 -12.027172 -0.550789 0.336967 18.279043 -0.687119 -2.168894 26.845724 2.006008 2.360793 -2.587059 -0.886316 -0.358758 -31.71097 -2.149847 -0.278201 6e-06 -0.0 -0.0 0.024053 0.012536 -0.028764 0.052075 0.038119 -0.008236 0.062765 -0.01545 -0.050659 -98.005112 -74.702408 112.447166 48.630863 -63.886925 2.745751 25.445011 -0.078204 -0.051089 0.768127 -0.241657 5.425719 17.636625 -26.322729 52.411182 -19.466656 -14.395594 29.410385 -0.0 -8.774819 -3e-06 15.943383 -18.185934 6.026791 -0.609777 -1.795653 -3.889328 -4.807089 -11.046811 -2.937851 4e-06 -20.976015 0.0 -5.019971 -25.033558 -4.03188 7e-06 -1e-06 1e-06 -10.634533 -5.686971 -3.565589 10.573271 -17.922947 -3.113901 3e-06 -13.821206 1e-06 -0.501778 -31.181505 -4.02701 -11.439463 -59.661423 7.145036 -13.982712 -7.150197 -2.875041 13.772726 -8.401491 -3.218237 0.347732 -34.211555 0.771658 -0.963028 -17.733372 2.621019 -1e-06 -1e-06 1e-06 -17.346413 -20.095217 -4.201782 21.757555 -1.638375 3.866428 1e-06 -6.338823 2e-06 -1.697586 -22.591745 -6.194007 -2e-06 -3e-06 -0.0 59.912254 -76.740082 135.893753 54.034855 -59.97126 3.573344 19.936905 -0.54634 -0.044563 -2.751163 -6.975208 11.155931 22.182114 -20.375896 49.933319 -16.701811 -16.743528 28.476522 -2e-06 -12.6906 -0.0 15.991046 -17.376902 2.54223 -0.105919 -1.513856 -4.275881 -5.03904 -5.61287 -2.953556 4e-06 -11.02052 -2e-06 -6.111294 -15.89533 -3.840472 -1e-06 1e-06 3e-06 -10.283367 -5.680287 -4.341836 11.028292 -11.302403 -2.372636 -1.384271 -14.238579 -6.32012 -0.625441 -26.924187 -3.8276 -4.178448 -49.822144 -3.996608 -13.708522 -7.363475 -3.720941 18.141146 -14.052737 -3.242671 7e-06 -18.787268 -1e-06 -0.429712 -8.456045 2.555503 1e-06 0.0 1e-06 -15.923532 -20.094482 -5.473585 30.419207 -7.190823 1.73593 3e-06 -8.162925 -1e-06 -1.861904 -22.861467 -6.167939 1e-06 -3e-06 -1e-06 175.687912 -11.231866 -8.055546 20.436369 -0.021581 0.264352 -79.439957 5.143482 -8.627031 -14.26109 1.702519 1.892203 -0.999999 0.0 -0.0 -15.872344 -6.650693 -1.905522 22.191309 -0.032262 0.207134 -70.801468 -7.5093 -8.756064 -12.123373 0.869738 1.593688 -1.000003 0.0 0.0 
